<svg width="500" height="500" viewBox="0 0 500 500" fill="none" xmlns="http://www.w3.org/2000/svg">
<g clip-path="url(#clip0_2834_921)">
<rect width="500" height="500" fill="white"/>
<path d="M0 -7V509" stroke="#EEEEEE" stroke-dasharray="2 2"/>
<path d="M27 -7V509" stroke="#EEEEEE" stroke-dasharray="2 2"/>
<path d="M54 -7V509" stroke="#EEEEEE" stroke-dasharray="2 2"/>
<path d="M81 -7V509" stroke="#EEEEEE" stroke-dasharray="2 2"/>
<path d="M108 -7V509" stroke="#EEEEEE" stroke-dasharray="2 2"/>
<path d="M135 -7V509" stroke="#EEEEEE" stroke-dasharray="2 2"/>
<path d="M162 -7V509" stroke="#EEEEEE" stroke-dasharray="2 2"/>
<path d="M189 -7V509" stroke="#EEEEEE" stroke-dasharray="2 2"/>
<path d="M216 -7V509" stroke="#EEEEEE" stroke-dasharray="2 2"/>
<path d="M243 -7V509" stroke="#EEEEEE" stroke-dasharray="2 2"/>
<path d="M270 -7V509" stroke="#EEEEEE" stroke-dasharray="2 2"/>
<path d="M297 -7V509" stroke="#EEEEEE" stroke-dasharray="2 2"/>
<path d="M324 -7V509" stroke="#EEEEEE" stroke-dasharray="2 2"/>
<path d="M351 -7V509" stroke="#EEEEEE" stroke-dasharray="2 2"/>
<path d="M378 -7V509" stroke="#EEEEEE" stroke-dasharray="2 2"/>
<path d="M405 -7V509" stroke="#EEEEEE" stroke-dasharray="2 2"/>
<path d="M432 -7V509" stroke="#EEEEEE" stroke-dasharray="2 2"/>
<path d="M459 -7V509" stroke="#EEEEEE" stroke-dasharray="2 2"/>
<path d="M486 -7V509" stroke="#EEEEEE" stroke-dasharray="2 2"/>
<path d="M-8 474L508 474" stroke="#EEEEEE" stroke-dasharray="2 2"/>
<path d="M-8 447L508 447" stroke="#EEEEEE" stroke-dasharray="2 2"/>
<path d="M-8 420L508 420" stroke="#EEEEEE" stroke-dasharray="2 2"/>
<path d="M-8 393L508 393" stroke="#EEEEEE" stroke-dasharray="2 2"/>
<path d="M-8 366L508 366" stroke="#EEEEEE" stroke-dasharray="2 2"/>
<path d="M-8 339L508 339" stroke="#EEEEEE" stroke-dasharray="2 2"/>
<path d="M-8 312L508 312" stroke="#EEEEEE" stroke-dasharray="2 2"/>
<path d="M-8 285L508 285" stroke="#EEEEEE" stroke-dasharray="2 2"/>
<path d="M-8 258L508 258" stroke="#EEEEEE" stroke-dasharray="2 2"/>
<path d="M-8 231L508 231" stroke="#EEEEEE" stroke-dasharray="2 2"/>
<path d="M-8 204L508 204" stroke="#EEEEEE" stroke-dasharray="2 2"/>
<path d="M-8 177L508 177" stroke="#EEEEEE" stroke-dasharray="2 2"/>
<path d="M-8.00003 150L508 150" stroke="#EEEEEE" stroke-dasharray="2 2"/>
<path d="M-8.00003 123L508 123" stroke="#EEEEEE" stroke-dasharray="2 2"/>
<path d="M-8.00003 96L508 96" stroke="#EEEEEE" stroke-dasharray="2 2"/>
<path d="M-8.00003 69L508 69" stroke="#EEEEEE" stroke-dasharray="2 2"/>
<path d="M-8.00003 42L508 42" stroke="#EEEEEE" stroke-dasharray="2 2"/>
<path d="M-8.00003 15L508 15" stroke="#EEEEEE" stroke-dasharray="2 2"/>
<path d="M77.8903 61.468V429.674" stroke="#CCCCCC" stroke-dasharray="4 2"/>
<path d="M136.573 61.468V429.674" stroke="#CCCCCC" stroke-dasharray="4 2"/>
<path d="M195.256 61.468V429.674" stroke="#CCCCCC" stroke-dasharray="4 2"/>
<path d="M253.939 61.468V429.674" stroke="#CCCCCC" stroke-dasharray="4 2"/>
<path d="M312.622 61.468V429.674" stroke="#CCCCCC" stroke-dasharray="4 2"/>
<path d="M371.304 61.468V429.674" stroke="#CCCCCC" stroke-dasharray="4 2"/>
<path d="M429.987 61.468V429.674" stroke="#CCCCCC" stroke-dasharray="4 2"/>
<path d="M66.0858 433.656C65.4437 433.656 64.8968 433.482 64.4451 433.132C63.9934 432.78 63.6483 432.27 63.4096 431.603C63.171 430.932 63.0517 430.122 63.0517 429.174C63.0517 428.23 63.171 427.425 63.4096 426.757C63.6511 426.087 63.9977 425.576 64.4494 425.223C64.9039 424.868 65.4494 424.691 66.0858 424.691C66.7221 424.691 67.2662 424.868 67.7179 425.223C68.1724 425.576 68.519 426.087 68.7576 426.757C68.9991 427.425 69.1199 428.23 69.1199 429.174C69.1199 430.122 69.0005 430.932 68.7619 431.603C68.5233 432.27 68.1781 432.78 67.7264 433.132C67.2747 433.482 66.7278 433.656 66.0858 433.656ZM66.0858 432.719C66.7221 432.719 67.2164 432.412 67.5687 431.799C67.921 431.185 68.0971 430.31 68.0971 429.174C68.0971 428.418 68.0162 427.774 67.8542 427.243C67.6951 426.712 67.465 426.307 67.1639 426.029C66.8656 425.75 66.5062 425.611 66.0858 425.611C65.4551 425.611 64.9622 425.922 64.6071 426.544C64.252 427.164 64.0744 428.04 64.0744 429.174C64.0744 429.929 64.1539 430.571 64.313 431.1C64.4721 431.628 64.7008 432.03 64.9991 432.306C65.3003 432.581 65.6625 432.719 66.0858 432.719Z" fill="#333333"/>
<path d="M56.1728 341.677V340.91L59.0535 337.757C59.3915 337.388 59.6699 337.067 59.8887 336.794C60.1074 336.518 60.2694 336.26 60.3745 336.018C60.4824 335.774 60.5364 335.518 60.5364 335.251C60.5364 334.945 60.4626 334.679 60.3148 334.454C60.1699 334.23 59.9711 334.057 59.7182 333.935C59.4654 333.812 59.1813 333.751 58.866 333.751C58.5307 333.751 58.2381 333.821 57.9881 333.96C57.741 334.097 57.5492 334.288 57.4128 334.535C57.2793 334.783 57.2126 335.072 57.2126 335.405H56.2069C56.2069 334.893 56.3248 334.445 56.5606 334.058C56.7964 333.672 57.1174 333.371 57.5236 333.155C57.9327 332.939 58.3915 332.831 58.9001 332.831C59.4114 332.831 59.8645 332.939 60.2594 333.155C60.6543 333.371 60.964 333.662 61.1884 334.028C61.4128 334.395 61.5251 334.802 61.5251 335.251C61.5251 335.572 61.4668 335.886 61.3503 336.193C61.2367 336.497 61.0378 336.837 60.7537 337.212C60.4725 337.584 60.0819 338.038 59.5819 338.575L57.6216 340.672V340.74H61.6785V341.677H56.1728ZM66.1657 341.797C65.6657 341.797 65.2154 341.697 64.8148 341.499C64.4143 341.3 64.0932 341.027 63.8518 340.68C63.6103 340.334 63.4782 339.939 63.4555 339.496H64.4782C64.518 339.891 64.6969 340.217 65.0151 340.476C65.3361 340.731 65.7197 340.859 66.1657 340.859C66.5236 340.859 66.8418 340.776 67.1202 340.608C67.4015 340.44 67.6216 340.21 67.7807 339.918C67.9427 339.622 68.0236 339.288 68.0236 338.916C68.0236 338.535 67.9398 338.196 67.7722 337.898C67.6074 337.597 67.3802 337.359 67.0904 337.186C66.8006 337.013 66.4697 336.925 66.0975 336.922C65.8305 336.919 65.5563 336.96 65.2751 337.045C64.9938 337.128 64.7623 337.234 64.5805 337.365L63.5918 337.246L64.1202 332.95H68.6543V333.888H65.0066L64.6998 336.462H64.7509C64.9299 336.32 65.1543 336.202 65.4242 336.108C65.6941 336.014 65.9753 335.967 66.268 335.967C66.802 335.967 67.2779 336.095 67.6955 336.351C68.116 336.604 68.4455 336.95 68.6841 337.391C68.9256 337.831 69.0464 338.334 69.0464 338.899C69.0464 339.456 68.9214 339.953 68.6714 340.391C68.4242 340.825 68.0833 341.169 67.6486 341.422C67.214 341.672 66.7197 341.797 66.1657 341.797Z" fill="#333333"/>
<path d="M58.6657 249.937C58.1657 249.937 57.7154 249.838 57.3148 249.639C56.9143 249.44 56.5932 249.167 56.3518 248.821C56.1103 248.474 55.9782 248.079 55.9555 247.636H56.9782C57.018 248.031 57.1969 248.358 57.5151 248.616C57.8361 248.872 58.2197 249 58.6657 249C59.0236 249 59.3418 248.916 59.6202 248.748C59.9015 248.581 60.1216 248.35 60.2807 248.058C60.4427 247.762 60.5236 247.429 60.5236 247.056C60.5236 246.676 60.4398 246.336 60.2722 246.038C60.1074 245.737 59.8802 245.5 59.5904 245.326C59.3006 245.153 58.9697 245.065 58.5975 245.062C58.3305 245.059 58.0563 245.1 57.7751 245.186C57.4938 245.268 57.2623 245.375 57.0805 245.505L56.0918 245.386L56.6202 241.091H61.1543V242.028H57.5066L57.1998 244.602H57.2509C57.4299 244.46 57.6543 244.342 57.9242 244.248C58.1941 244.154 58.4753 244.108 58.768 244.108C59.302 244.108 59.7779 244.235 60.1955 244.491C60.616 244.744 60.9455 245.091 61.1841 245.531C61.4256 245.971 61.5464 246.474 61.5464 247.039C61.5464 247.596 61.4214 248.093 61.1714 248.531C60.9242 248.966 60.5833 249.309 60.1486 249.562C59.714 249.812 59.2197 249.937 58.6657 249.937ZM66.0858 249.937C65.4437 249.937 64.8969 249.762 64.4452 249.413C63.9934 249.061 63.6483 248.551 63.4096 247.883C63.171 247.213 63.0517 246.403 63.0517 245.454C63.0517 244.511 63.171 243.706 63.4096 243.038C63.6511 242.367 63.9977 241.856 64.4494 241.504C64.904 241.149 65.4494 240.971 66.0858 240.971C66.7221 240.971 67.2662 241.149 67.7179 241.504C68.1724 241.856 68.519 242.367 68.7577 243.038C68.9991 243.706 69.1199 244.511 69.1199 245.454C69.1199 246.403 69.0006 247.213 68.7619 247.883C68.5233 248.551 68.1781 249.061 67.7264 249.413C67.2747 249.762 66.7278 249.937 66.0858 249.937ZM66.0858 249C66.7221 249 67.2165 248.693 67.5687 248.079C67.921 247.466 68.0971 246.591 68.0971 245.454C68.0971 244.698 68.0162 244.055 67.8542 243.524C67.6952 242.992 67.465 242.588 67.1639 242.309C66.8656 242.031 66.5062 241.892 66.0858 241.892C65.4551 241.892 64.9622 242.203 64.6071 242.825C64.252 243.444 64.0744 244.321 64.0744 245.454C64.0744 246.21 64.154 246.852 64.3131 247.38C64.4721 247.909 64.7008 248.311 64.9991 248.586C65.3003 248.862 65.6625 249 66.0858 249Z" fill="#333333"/>
<path d="M56.9729 157.958L60.8763 150.236V150.168H56.3763V149.231H61.9672V150.219L58.0808 157.958H56.9729ZM66.1657 158.077C65.6657 158.077 65.2154 157.978 64.8148 157.779C64.4143 157.58 64.0932 157.308 63.8518 156.961C63.6103 156.614 63.4782 156.219 63.4555 155.776H64.4782C64.518 156.171 64.6969 156.498 65.0151 156.756C65.3361 157.012 65.7197 157.14 66.1657 157.14C66.5236 157.14 66.8418 157.056 67.1202 156.888C67.4015 156.721 67.6216 156.491 67.7807 156.198C67.9427 155.903 68.0236 155.569 68.0236 155.197C68.0236 154.816 67.9398 154.477 67.7722 154.178C67.6074 153.877 67.3802 153.64 67.0904 153.467C66.8006 153.293 66.4697 153.205 66.0975 153.202C65.8305 153.2 65.5563 153.241 65.2751 153.326C64.9938 153.408 64.7623 153.515 64.5805 153.646L63.5918 153.526L64.1202 149.231H68.6543V150.168H65.0066L64.6998 152.742H64.7509C64.9299 152.6 65.1543 152.482 65.4242 152.388C65.6941 152.295 65.9753 152.248 66.268 152.248C66.802 152.248 67.2779 152.376 67.6955 152.631C68.116 152.884 68.4455 153.231 68.6841 153.671C68.9256 154.111 69.0464 154.614 69.0464 155.18C69.0464 155.736 68.9214 156.234 68.6714 156.671C68.4242 157.106 68.0833 157.45 67.6486 157.702C67.214 157.952 66.7197 158.077 66.1657 158.077Z" fill="#333333"/>
<path d="M53.2293 57.3711V66.0984H52.1724V58.4791H52.1213L49.9906 59.8938V58.82L52.1724 57.3711H53.2293ZM58.5858 66.2177C57.9437 66.2177 57.3969 66.043 56.9452 65.6936C56.4935 65.3413 56.1483 64.8313 55.9097 64.1637C55.671 63.4933 55.5517 62.6836 55.5517 61.7348C55.5517 60.7916 55.671 59.9862 55.9097 59.3186C56.1511 58.6481 56.4977 58.1367 56.9494 57.7845C57.404 57.4294 57.9494 57.2518 58.5858 57.2518C59.2222 57.2518 59.7662 57.4294 60.2179 57.7845C60.6724 58.1367 61.019 58.6481 61.2577 59.3186C61.4991 59.9862 61.6199 60.7916 61.6199 61.7348C61.6199 62.6836 61.5006 63.4933 61.2619 64.1637C61.0233 64.8313 60.6781 65.3413 60.2264 65.6936C59.7747 66.043 59.2278 66.2177 58.5858 66.2177ZM58.5858 65.2802C59.2222 65.2802 59.7165 64.9734 60.0687 64.3598C60.421 63.7461 60.5972 62.8711 60.5972 61.7348C60.5972 60.9791 60.5162 60.3356 60.3543 59.8044C60.1952 59.2731 59.965 58.8683 59.6639 58.5899C59.3656 58.3115 59.0062 58.1723 58.5858 58.1723C57.9551 58.1723 57.4622 58.4833 57.1071 59.1055C56.752 59.7248 56.5744 60.6012 56.5744 61.7348C56.5744 62.4904 56.654 63.1325 56.8131 63.6609C56.9722 64.1893 57.2008 64.5913 57.4991 64.8669C57.8003 65.1424 58.1625 65.2802 58.5858 65.2802ZM66.0858 66.2177C65.4437 66.2177 64.8969 66.043 64.4452 65.6936C63.9935 65.3413 63.6483 64.8313 63.4097 64.1637C63.171 63.4933 63.0517 62.6836 63.0517 61.7348C63.0517 60.7916 63.171 59.9862 63.4097 59.3186C63.6511 58.6481 63.9977 58.1367 64.4494 57.7845C64.904 57.4294 65.4494 57.2518 66.0858 57.2518C66.7222 57.2518 67.2662 57.4294 67.7179 57.7845C68.1724 58.1367 68.519 58.6481 68.7577 59.3186C68.9991 59.9862 69.1199 60.7916 69.1199 61.7348C69.1199 62.6836 69.0006 63.4933 68.7619 64.1637C68.5233 64.8313 68.1781 65.3413 67.7264 65.6936C67.2747 66.043 66.7278 66.2177 66.0858 66.2177ZM66.0858 65.2802C66.7222 65.2802 67.2165 64.9734 67.5687 64.3598C67.921 63.7461 68.0972 62.8711 68.0972 61.7348C68.0972 60.9791 68.0162 60.3356 67.8543 59.8044C67.6952 59.2731 67.465 58.8683 67.1639 58.5899C66.8656 58.3115 66.5062 58.1723 66.0858 58.1723C65.4551 58.1723 64.9622 58.4833 64.6071 59.1055C64.252 59.7248 64.0744 60.6012 64.0744 61.7348C64.0744 62.4904 64.154 63.1325 64.3131 63.6609C64.4722 64.1893 64.7008 64.5913 64.9991 64.8669C65.3003 65.1424 65.6625 65.2802 66.0858 65.2802Z" fill="#333333"/>
<path d="M71.4576 440.896H72.5087L74.9803 446.933H75.0655L77.5371 440.896H78.5883V448.169H77.7644V442.644H77.6934L75.4207 448.169H74.6252L72.3525 442.644H72.2814V448.169H71.4576V440.896ZM82.4563 448.283C81.9639 448.283 81.5319 448.166 81.1602 447.931C80.7909 447.697 80.502 447.369 80.2937 446.948C80.0877 446.526 79.9848 446.034 79.9848 445.47C79.9848 444.902 80.0877 444.406 80.2937 443.982C80.502 443.559 80.7909 443.23 81.1602 442.995C81.5319 442.761 81.9639 442.644 82.4563 442.644C82.9488 442.644 83.3796 442.761 83.749 442.995C84.1206 443.23 84.4095 443.559 84.6154 443.982C84.8238 444.406 84.9279 444.902 84.9279 445.47C84.9279 446.034 84.8238 446.526 84.6154 446.948C84.4095 447.369 84.1206 447.697 83.749 447.931C83.3796 448.166 82.9488 448.283 82.4563 448.283ZM82.4563 447.53C82.8304 447.53 83.1382 447.434 83.3796 447.242C83.6211 447.051 83.7999 446.798 83.9159 446.486C84.0319 446.173 84.0899 445.835 84.0899 445.47C84.0899 445.106 84.0319 444.766 83.9159 444.451C83.7999 444.136 83.6211 443.882 83.3796 443.688C83.1382 443.493 82.8304 443.396 82.4563 443.396C82.0823 443.396 81.7745 443.493 81.533 443.688C81.2916 443.882 81.1128 444.136 80.9968 444.451C80.8808 444.766 80.8228 445.106 80.8228 445.47C80.8228 445.835 80.8808 446.173 80.9968 446.486C81.1128 446.798 81.2916 447.051 81.533 447.242C81.7745 447.434 82.0823 447.53 82.4563 447.53ZM87.0453 444.888V448.169H86.2072V442.715H87.0169V443.567H87.0879C87.2158 443.29 87.4099 443.067 87.6703 442.899C87.9307 442.729 88.2669 442.644 88.6788 442.644C89.0481 442.644 89.3713 442.719 89.6483 442.871C89.9253 443.02 90.1407 443.247 90.2946 443.553C90.4485 443.856 90.5254 444.239 90.5254 444.703V448.169H89.6873V444.76C89.6873 444.332 89.5761 443.998 89.3535 443.759C89.131 443.517 88.8256 443.396 88.4373 443.396C88.1698 443.396 87.9307 443.454 87.72 443.57C87.5117 443.686 87.3471 443.856 87.2264 444.078C87.1057 444.301 87.0453 444.571 87.0453 444.888Z" fill="#333333"/>
<path d="M130.555 441.678V440.896H136.009V441.678H133.722V448.169H132.842V441.678H130.555ZM139.95 445.939V442.715H140.788V448.169H139.95V447.246H139.893C139.765 447.523 139.567 447.758 139.297 447.953C139.027 448.144 138.686 448.24 138.274 448.24C137.933 448.24 137.63 448.166 137.365 448.016C137.1 447.865 136.891 447.638 136.74 447.335C136.588 447.029 136.513 446.645 136.513 446.18V442.715H137.351V446.124C137.351 446.521 137.462 446.839 137.684 447.075C137.909 447.312 138.196 447.43 138.544 447.43C138.752 447.43 138.964 447.377 139.18 447.271C139.397 447.164 139.58 447.001 139.726 446.781C139.876 446.56 139.95 446.28 139.95 445.939ZM144.61 448.283C144.085 448.283 143.631 448.167 143.25 447.935C142.871 447.7 142.579 447.374 142.373 446.955C142.169 446.533 142.067 446.043 142.067 445.484C142.067 444.926 142.169 444.433 142.373 444.007C142.579 443.579 142.865 443.245 143.232 443.006C143.602 442.764 144.032 442.644 144.525 442.644C144.809 442.644 145.09 442.691 145.366 442.786C145.643 442.88 145.896 443.034 146.123 443.247C146.35 443.458 146.531 443.737 146.666 444.085C146.801 444.433 146.869 444.862 146.869 445.371V445.726H142.664V445.002H146.016C146.016 444.694 145.955 444.419 145.832 444.178C145.711 443.936 145.538 443.746 145.313 443.606C145.091 443.466 144.828 443.396 144.525 443.396C144.191 443.396 143.902 443.479 143.658 443.645C143.417 443.808 143.231 444.021 143.101 444.284C142.971 444.547 142.906 444.829 142.906 445.129V445.612C142.906 446.024 142.977 446.373 143.119 446.66C143.263 446.944 143.463 447.161 143.719 447.31C143.974 447.457 144.272 447.53 144.61 447.53C144.83 447.53 145.029 447.499 145.207 447.438C145.387 447.374 145.542 447.279 145.672 447.154C145.802 447.026 145.903 446.867 145.974 446.678L146.783 446.905C146.698 447.18 146.555 447.421 146.354 447.629C146.152 447.835 145.904 447.996 145.608 448.112C145.312 448.226 144.979 448.283 144.61 448.283Z" fill="#333333"/>
<path d="M187.455 448.169L185.466 440.896H186.361L187.881 446.82H187.952L189.5 440.896H190.495L192.043 446.82H192.114L193.634 440.896H194.529L192.54 448.169H191.631L190.026 442.374H189.969L188.364 448.169H187.455ZM197.292 448.283C196.766 448.283 196.313 448.167 195.932 447.935C195.553 447.7 195.26 447.374 195.054 446.955C194.851 446.533 194.749 446.043 194.749 445.484C194.749 444.926 194.851 444.433 195.054 444.007C195.26 443.579 195.547 443.245 195.914 443.006C196.283 442.764 196.714 442.644 197.206 442.644C197.49 442.644 197.771 442.691 198.048 442.786C198.325 442.88 198.577 443.034 198.804 443.247C199.032 443.458 199.213 443.737 199.348 444.085C199.483 444.433 199.55 444.862 199.55 445.371V445.726H195.346V445.002H198.698C198.698 444.694 198.636 444.419 198.513 444.178C198.392 443.936 198.22 443.746 197.995 443.606C197.772 443.466 197.509 443.396 197.206 443.396C196.873 443.396 196.584 443.479 196.34 443.645C196.098 443.808 195.913 444.021 195.782 444.284C195.652 444.547 195.587 444.829 195.587 445.129V445.612C195.587 446.024 195.658 446.373 195.8 446.66C195.945 446.944 196.145 447.161 196.4 447.31C196.656 447.457 196.953 447.53 197.292 447.53C197.512 447.53 197.711 447.499 197.888 447.438C198.068 447.374 198.223 447.279 198.353 447.154C198.484 447.026 198.584 446.867 198.655 446.678L199.465 446.905C199.38 447.18 199.236 447.421 199.035 447.629C198.834 447.835 198.585 447.996 198.29 448.112C197.994 448.226 197.661 448.283 197.292 448.283ZM202.885 448.283C202.43 448.283 202.029 448.168 201.681 447.938C201.333 447.706 201.061 447.38 200.864 446.958C200.668 446.534 200.569 446.034 200.569 445.456C200.569 444.883 200.668 444.386 200.864 443.965C201.061 443.543 201.334 443.218 201.684 442.988C202.035 442.758 202.44 442.644 202.899 442.644C203.254 442.644 203.535 442.703 203.74 442.821C203.949 442.937 204.107 443.07 204.216 443.219C204.328 443.366 204.414 443.486 204.476 443.581H204.547V440.896H205.385V448.169H204.575V447.331H204.476C204.414 447.43 204.326 447.556 204.213 447.707C204.099 447.857 203.937 447.99 203.726 448.109C203.516 448.225 203.235 448.283 202.885 448.283ZM202.998 447.53C203.334 447.53 203.619 447.442 203.851 447.267C204.083 447.09 204.259 446.845 204.38 446.532C204.5 446.217 204.561 445.854 204.561 445.442C204.561 445.035 204.502 444.678 204.383 444.373C204.265 444.065 204.09 443.826 203.858 443.656C203.626 443.483 203.339 443.396 202.998 443.396C202.643 443.396 202.347 443.488 202.111 443.67C201.876 443.85 201.7 444.095 201.581 444.405C201.465 444.713 201.407 445.058 201.407 445.442C201.407 445.83 201.467 446.183 201.585 446.5C201.706 446.815 201.883 447.066 202.118 447.253C202.354 447.438 202.648 447.53 202.998 447.53Z" fill="#333333"/>
<path d="M245.344 441.678V440.896H250.799V441.678H248.512V448.169H247.631V441.678H245.344ZM252.883 444.888V448.169H252.044V440.896H252.883V443.567H252.954C253.081 443.285 253.273 443.061 253.529 442.896C253.787 442.728 254.13 442.644 254.559 442.644C254.93 442.644 255.256 442.718 255.535 442.867C255.815 443.014 256.031 443.24 256.185 443.546C256.341 443.849 256.419 444.234 256.419 444.703V448.169H255.581V444.76C255.581 444.327 255.469 443.992 255.244 443.755C255.022 443.516 254.713 443.396 254.317 443.396C254.043 443.396 253.796 443.454 253.579 443.57C253.363 443.686 253.193 443.856 253.067 444.078C252.944 444.301 252.883 444.571 252.883 444.888ZM261.39 445.939V442.715H262.228V448.169H261.39V447.246H261.333C261.206 447.523 261.007 447.758 260.737 447.953C260.467 448.144 260.126 448.24 259.714 448.24C259.373 448.24 259.07 448.166 258.805 448.016C258.54 447.865 258.331 447.638 258.18 447.335C258.028 447.029 257.953 446.645 257.953 446.18V442.715H258.791V446.124C258.791 446.521 258.902 446.839 259.125 447.075C259.349 447.312 259.636 447.43 259.984 447.43C260.192 447.43 260.404 447.377 260.62 447.271C260.837 447.164 261.02 447.001 261.166 446.781C261.316 446.56 261.39 446.28 261.39 445.939Z" fill="#333333"/>
<path d="M306.648 448.169V440.896H311.009V441.678H307.529V444.135H310.682V444.916H307.529V448.169H306.648ZM312.345 448.169V442.715H313.155V443.538H313.211C313.311 443.269 313.491 443.05 313.751 442.881C314.012 442.713 314.305 442.629 314.632 442.629C314.693 442.629 314.77 442.631 314.863 442.633C314.955 442.635 315.025 442.639 315.072 442.644V443.496C315.044 443.489 314.979 443.478 314.877 443.464C314.778 443.447 314.672 443.439 314.561 443.439C314.296 443.439 314.059 443.495 313.851 443.606C313.645 443.715 313.481 443.866 313.361 444.06C313.242 444.252 313.183 444.471 313.183 444.717V448.169H312.345ZM316.066 448.169V442.715H316.904V448.169H316.066ZM316.492 441.805C316.328 441.805 316.188 441.75 316.069 441.639C315.953 441.527 315.895 441.394 315.895 441.237C315.895 441.081 315.953 440.947 316.069 440.836C316.188 440.725 316.328 440.669 316.492 440.669C316.655 440.669 316.795 440.725 316.911 440.836C317.029 440.947 317.088 441.081 317.088 441.237C317.088 441.394 317.029 441.527 316.911 441.639C316.795 441.75 316.655 441.805 316.492 441.805Z" fill="#333333"/>
<path d="M366.169 442.715C366.127 442.355 365.954 442.075 365.651 441.877C365.348 441.678 364.976 441.578 364.536 441.578C364.214 441.578 363.932 441.63 363.69 441.734C363.451 441.839 363.264 441.982 363.129 442.164C362.997 442.346 362.931 442.554 362.931 442.786C362.931 442.98 362.977 443.147 363.069 443.286C363.164 443.424 363.284 443.538 363.431 443.631C363.578 443.721 363.732 443.795 363.893 443.854C364.054 443.911 364.202 443.957 364.337 443.993L365.075 444.192C365.265 444.242 365.476 444.31 365.708 444.398C365.942 444.485 366.166 444.605 366.379 444.756C366.594 444.906 366.772 445.097 366.911 445.332C367.051 445.566 367.121 445.854 367.121 446.195C367.121 446.588 367.018 446.943 366.812 447.26C366.608 447.577 366.31 447.829 365.917 448.016C365.526 448.203 365.052 448.297 364.493 448.297C363.972 448.297 363.521 448.213 363.14 448.045C362.761 447.877 362.463 447.642 362.245 447.342C362.03 447.041 361.908 446.692 361.879 446.294H362.789C362.812 446.569 362.905 446.796 363.065 446.976C363.229 447.154 363.435 447.286 363.683 447.374C363.934 447.459 364.204 447.502 364.493 447.502C364.829 447.502 365.131 447.447 365.399 447.338C365.666 447.227 365.878 447.073 366.034 446.877C366.19 446.678 366.269 446.446 366.269 446.18C366.269 445.939 366.201 445.743 366.066 445.591C365.931 445.439 365.754 445.316 365.534 445.222C365.313 445.127 365.075 445.044 364.82 444.973L363.925 444.717C363.357 444.554 362.907 444.321 362.575 444.018C362.244 443.715 362.078 443.318 362.078 442.828C362.078 442.421 362.188 442.066 362.409 441.763C362.631 441.457 362.929 441.221 363.303 441.053C363.68 440.882 364.1 440.797 364.564 440.797C365.033 440.797 365.449 440.881 365.814 441.049C366.179 441.215 366.467 441.442 366.681 441.731C366.896 442.02 367.01 442.348 367.021 442.715H366.169ZM370.06 448.297C369.715 448.297 369.401 448.232 369.119 448.102C368.838 447.969 368.614 447.779 368.448 447.53C368.282 447.279 368.2 446.976 368.2 446.621C368.2 446.308 368.261 446.055 368.384 445.861C368.507 445.664 368.672 445.511 368.878 445.399C369.084 445.288 369.311 445.205 369.56 445.151C369.811 445.094 370.063 445.049 370.316 445.016C370.647 444.973 370.916 444.941 371.122 444.92C371.33 444.896 371.482 444.857 371.577 444.803C371.674 444.748 371.722 444.654 371.722 444.519V444.49C371.722 444.14 371.626 443.868 371.435 443.673C371.245 443.479 370.958 443.382 370.572 443.382C370.172 443.382 369.858 443.47 369.631 443.645C369.403 443.82 369.244 444.007 369.151 444.206L368.356 443.922C368.498 443.591 368.687 443.332 368.924 443.148C369.163 442.961 369.424 442.831 369.705 442.757C369.989 442.681 370.269 442.644 370.543 442.644C370.718 442.644 370.92 442.665 371.147 442.707C371.377 442.748 371.598 442.832 371.811 442.96C372.026 443.087 372.205 443.28 372.347 443.538C372.489 443.796 372.56 444.142 372.56 444.575V448.169H371.722V447.43H371.68C371.623 447.549 371.528 447.676 371.396 447.81C371.263 447.945 371.087 448.06 370.866 448.155C370.646 448.25 370.378 448.297 370.06 448.297ZM370.188 447.544C370.52 447.544 370.799 447.479 371.026 447.349C371.256 447.219 371.429 447.051 371.545 446.845C371.663 446.639 371.722 446.422 371.722 446.195V445.428C371.687 445.47 371.609 445.509 371.488 445.545C371.37 445.578 371.232 445.608 371.076 445.634C370.922 445.657 370.772 445.679 370.625 445.698C370.481 445.714 370.363 445.728 370.273 445.74C370.056 445.769 369.852 445.815 369.663 445.879C369.476 445.94 369.324 446.034 369.208 446.159C369.094 446.282 369.038 446.45 369.038 446.663C369.038 446.955 369.145 447.175 369.361 447.324C369.579 447.471 369.854 447.544 370.188 447.544ZM376.462 442.715V443.425H373.635V442.715H376.462ZM374.459 441.408H375.297V446.607C375.297 446.843 375.332 447.021 375.4 447.139C375.471 447.255 375.561 447.333 375.67 447.374C375.782 447.412 375.899 447.43 376.022 447.43C376.114 447.43 376.19 447.426 376.249 447.416C376.308 447.404 376.356 447.395 376.391 447.388L376.562 448.141C376.505 448.162 376.425 448.183 376.324 448.205C376.222 448.228 376.093 448.24 375.937 448.24C375.7 448.24 375.468 448.189 375.241 448.087C375.016 447.986 374.829 447.831 374.679 447.622C374.533 447.414 374.459 447.151 374.459 446.834V441.408Z" fill="#333333"/>
<path d="M422.764 442.715C422.721 442.355 422.548 442.075 422.245 441.877C421.942 441.678 421.57 441.578 421.13 441.578C420.808 441.578 420.526 441.63 420.285 441.734C420.046 441.839 419.859 441.982 419.724 442.164C419.591 442.346 419.525 442.554 419.525 442.786C419.525 442.98 419.571 443.147 419.663 443.286C419.758 443.424 419.879 443.538 420.026 443.631C420.172 443.721 420.326 443.795 420.487 443.854C420.648 443.911 420.796 443.957 420.931 443.993L421.67 444.192C421.859 444.242 422.07 444.31 422.302 444.398C422.536 444.485 422.76 444.605 422.973 444.756C423.188 444.906 423.366 445.097 423.506 445.332C423.645 445.566 423.715 445.854 423.715 446.195C423.715 446.588 423.612 446.943 423.406 447.26C423.203 447.577 422.904 447.829 422.511 448.016C422.121 448.203 421.646 448.297 421.087 448.297C420.567 448.297 420.116 448.213 419.734 448.045C419.356 447.877 419.057 447.642 418.84 447.342C418.624 447.041 418.502 446.692 418.474 446.294H419.383C419.407 446.569 419.499 446.796 419.66 446.976C419.823 447.154 420.029 447.286 420.278 447.374C420.529 447.459 420.799 447.502 421.087 447.502C421.424 447.502 421.725 447.447 421.993 447.338C422.26 447.227 422.472 447.073 422.629 446.877C422.785 446.678 422.863 446.446 422.863 446.18C422.863 445.939 422.795 445.743 422.661 445.591C422.526 445.439 422.348 445.316 422.128 445.222C421.908 445.127 421.67 445.044 421.414 444.973L420.519 444.717C419.951 444.554 419.501 444.321 419.17 444.018C418.838 443.715 418.673 443.318 418.673 442.828C418.673 442.421 418.783 442.066 419.003 441.763C419.225 441.457 419.524 441.221 419.898 441.053C420.274 440.882 420.694 440.797 421.158 440.797C421.627 440.797 422.044 440.881 422.408 441.049C422.773 441.215 423.062 441.442 423.275 441.731C423.49 442.02 423.604 442.348 423.616 442.715H422.764ZM428.487 445.939V442.715H429.325V448.169H428.487V447.246H428.43C428.302 447.523 428.104 447.758 427.834 447.953C427.564 448.144 427.223 448.24 426.811 448.24C426.47 448.24 426.167 448.166 425.902 448.016C425.637 447.865 425.428 447.638 425.277 447.335C425.125 447.029 425.05 446.645 425.05 446.18V442.715H425.888V446.124C425.888 446.521 425.999 446.839 426.221 447.075C426.446 447.312 426.733 447.43 427.081 447.43C427.289 447.43 427.501 447.377 427.716 447.271C427.934 447.164 428.117 447.001 428.263 446.781C428.412 446.56 428.487 446.28 428.487 445.939ZM431.698 444.888V448.169H430.86V442.715H431.67V443.567H431.741C431.869 443.29 432.063 443.067 432.323 442.899C432.584 442.729 432.92 442.644 433.332 442.644C433.701 442.644 434.024 442.719 434.301 442.871C434.578 443.02 434.794 443.247 434.947 443.553C435.101 443.856 435.178 444.239 435.178 444.703V448.169H434.34V444.76C434.34 444.332 434.229 443.998 434.006 443.759C433.784 443.517 433.478 443.396 433.09 443.396C432.823 443.396 432.584 443.454 432.373 443.57C432.165 443.686 432 443.856 431.879 444.078C431.759 444.301 431.698 444.571 431.698 444.888Z" fill="#333333"/>
<path opacity="0.2" fill-rule="evenodd" clip-rule="evenodd" d="M77.5067 392.853L136.317 319.212L195.128 245.571L253.939 319.212L312.749 356.033L371.56 282.392L430.371 208.75V429.674H77.5067V392.853Z" fill="#0E9CFF"/>
<path d="M77.5067 392.853L136.317 319.212L195.128 245.571L253.939 319.212L312.749 356.033L371.56 282.392L430.371 208.75" stroke="#0E9CFF" stroke-width="2" stroke-linejoin="round"/>
<circle cx="77.5068" cy="392.853" r="2.91774" fill="white" stroke="#0E9CFF" stroke-width="2"/>
<circle cx="136.317" cy="319.212" r="2.91774" fill="white" stroke="#0E9CFF" stroke-width="2"/>
<circle cx="195.128" cy="245.571" r="2.91774" fill="white" stroke="#0E9CFF" stroke-width="2"/>
<circle cx="253.939" cy="319.212" r="2.91774" fill="white" stroke="#0E9CFF" stroke-width="2"/>
<circle cx="312.749" cy="356.033" r="2.91774" fill="white" stroke="#0E9CFF" stroke-width="2"/>
<circle cx="371.56" cy="282.392" r="2.91774" fill="white" stroke="#0E9CFF" stroke-width="2"/>
<circle cx="430.371" cy="208.75" r="2.91774" fill="white" stroke="#0E9CFF" stroke-width="2"/>
</g>
<defs>
<clipPath id="clip0_2834_921">
<rect width="500" height="500" fill="white"/>
</clipPath>
</defs>
</svg>
