<svg width="116" height="116" viewBox="0 0 116 116" fill="none" xmlns="http://www.w3.org/2000/svg">
<g filter="url(#filter0_d_2835_795)">
<path d="M22.2006 65.3989C19.0465 65.3989 16.1964 66.691 14.1443 68.7431C9.66011 73.2273 7 92 7 92C7 92 25.7728 89.3399 30.2569 84.8557C31.8567 83.2642 32.9475 81.2332 33.3908 79.0206C33.8341 76.808 33.6098 74.5135 32.7465 72.4286C31.8832 70.3436 30.4198 68.5623 28.5422 67.3106C26.6645 66.059 24.4572 65.3936 22.2006 65.3989ZM24.8987 79.4975C23.8347 80.5615 16.6524 82.3856 16.6524 82.3856C16.6524 82.3856 18.4385 75.2413 19.5405 74.1393C20.1865 73.4173 21.1366 72.9992 22.2006 72.9992C22.953 73.0003 23.6882 73.2241 24.3136 73.6422C24.9391 74.0604 25.4268 74.6543 25.7153 75.3492C26.0038 76.044 26.0802 76.8087 25.9349 77.5469C25.7896 78.2851 25.4291 78.9638 24.8987 79.4975ZM65.5983 60.2687C89.7673 36.0998 81.711 17.289 81.711 17.289C81.711 17.289 62.9002 9.23269 38.7313 33.4017L29.2689 31.5016C28.0389 31.2654 26.7698 31.3323 25.5714 31.6964C24.373 32.0606 23.2813 32.7111 22.3906 33.5917L7 49.0203L26.0008 57.1526L41.8474 72.9992L49.9797 92L65.3703 76.6094C67.1564 74.8233 67.9544 72.2392 67.4604 69.7311L65.5983 60.2687ZM27.5588 49.5523L20.3005 46.4362L27.7868 38.9499L33.2591 40.0519C31.093 43.206 29.1549 46.5122 27.5588 49.5523ZM52.5638 78.6995L49.4477 71.4412C52.4878 69.8451 55.7939 67.907 58.9101 65.7409L60.0121 71.2132L52.5638 78.6995ZM60.2021 54.9105C55.1859 59.9267 47.3576 64.0309 44.8495 65.2849L33.7151 54.1505C34.9311 51.6804 39.0353 43.8521 44.0895 38.7979C61.8742 21.0132 75.3647 23.6353 75.3647 23.6353C75.3647 23.6353 77.9868 37.1258 60.2021 54.9105ZM56.402 50.1983C60.5821 50.1983 64.0023 46.7782 64.0023 42.598C64.0023 38.4179 60.5821 34.9977 56.402 34.9977C52.2218 34.9977 48.8017 38.4179 48.8017 42.598C48.8017 46.7782 52.2218 50.1983 56.402 50.1983Z" fill="#E0E0E0"/>
</g>
<defs>
<filter id="filter0_d_2835_795" x="0" y="0" width="116" height="116" filterUnits="userSpaceOnUse" color-interpolation-filters="sRGB">
<feFlood flood-opacity="0" result="BackgroundImageFix"/>
<feColorMatrix in="SourceAlpha" type="matrix" values="0 0 0 0 0 0 0 0 0 0 0 0 0 0 0 0 0 0 127 0" result="hardAlpha"/>
<feOffset dx="13" dy="4"/>
<feGaussianBlur stdDeviation="10"/>
<feComposite in2="hardAlpha" operator="out"/>
<feColorMatrix type="matrix" values="0 0 0 0 0 0 0 0 0 0 0 0 0 0 0 0 0 0 0.08 0"/>
<feBlend mode="normal" in2="BackgroundImageFix" result="effect1_dropShadow_2835_795"/>
<feBlend mode="normal" in="SourceGraphic" in2="effect1_dropShadow_2835_795" result="shape"/>
</filter>
</defs>
</svg>
